<?xml version="1.0" encoding="utf-8"?>
<!-- Generator: Adobe Illustrator 18.1.0, SVG Export Plug-In . SVG Version: 6.00 Build 0)  -->
<!DOCTYPE svg PUBLIC "-//W3C//DTD SVG 1.1//EN" "http://www.w3.org/Graphics/SVG/1.1/DTD/svg11.dtd">
<svg version="1.1" id="Layer_1" xmlns="http://www.w3.org/2000/svg" xmlns:xlink="http://www.w3.org/1999/xlink" x="0px" y="0px"
	 viewBox="0 0 201 82.5" enable-background="new 0 0 201 82.5" xml:space="preserve">
<g>
	<defs>
		<rect id="SVGID_1_" x="-4896.6" y="4974.7" width="184" height="64.2"/>
	</defs>
	<clipPath id="SVGID_2_">
		<use xlink:href="#SVGID_1_"  overflow="visible"/>
	</clipPath>
	<g clip-path="url(#SVGID_2_)">
		<defs>
			<rect id="SVGID_3_" x="-4896.6" y="4974.7" width="184" height="64.2"/>
		</defs>
		<clipPath id="SVGID_4_">
			<use xlink:href="#SVGID_3_"  overflow="visible"/>
		</clipPath>
		<path clip-path="url(#SVGID_4_)" fill="#FCDFEB" d="M-4720.6,5005.4h8v-30.7h-8V5005.4z M-4731.9,5005.4h8v-22.7h-8V5005.4z
			 M-4732.1,4980.6h8.3v-5.9h-8.3V4980.6z M-4771.6,5005.4h8V4993c0-2.5,1.3-3.8,3.2-3.8c1.9,0,3.1,1.3,3.1,3.8v12.4h8V4993
			c0-2.5,1.4-3.8,3.3-3.8c1.9,0,3.1,1.3,3.1,3.8v12.4h8v-14.9c0-5.3-2.9-8.3-7.8-8.3c-3.3,0-5.6,1.4-7.6,3.7
			c-1.2-2.4-3.5-3.7-6.6-3.7c-3.2,0-5.3,1.7-6.8,3.6v-3.1h-8V5005.4z M-4786.4,5000.9c-1.6,0-2.8-0.9-2.8-2.5v-0.1
			c0-1.7,1.3-2.8,3.7-2.8c1.2,0,2.3,0.3,3.1,0.6v1C-4782.4,4999.4-4784.1,5000.9-4786.4,5000.9 M-4789.2,5005.9c3,0,5.1-1.1,6.7-2.9
			v2.4h7.9v-13.1c0-3.2-0.7-5.5-2.4-7.2c-1.8-1.8-4.6-2.8-8.7-2.8c-3.9,0-6.6,0.7-9.2,1.8l1.6,5.6c2-0.8,3.9-1.3,6.3-1.3
			c3.1,0,4.5,1.3,4.5,3.7v0.4c-1.3-0.5-3.4-0.9-5.5-0.9c-5.3,0-8.9,2.4-8.9,7.1v0.1C-4796.9,5003.4-4793.5,5005.9-4789.2,5005.9"/>
		<path clip-path="url(#SVGID_4_)" fill="#A7A9AC" d="M-4884.1,5025.8c2.8,0,4.8-2.4,4.8-5.1v-0.1c0-2.7-1.8-5-4.7-5
			c-2.8,0-4.8,2.4-4.8,5.1v0.1C-4888.8,5023.5-4887,5025.8-4884.1,5025.8 M-4884,5032.6c-7.3,0-12.6-5.4-12.6-11.9v-0.1
			c0-6.5,5.3-11.8,12.5-11.8c7.3,0,12.6,5.4,12.6,11.9v0.1C-4871.5,5027.3-4876.7,5032.6-4884,5032.6 M-4864.6,5032.5
			c-2.2,0-4.1-0.5-5.5-1.3v-6.3c1,0.5,2,0.8,3,0.8c1.5,0,2.2-0.7,2.2-2.3v-7.7h-5.3v-6.4h5.3v-5.8h8v5.8h2.7v6.4h-2.7v9.2
			C-4856.9,5030.4-4859.8,5032.5-4864.6,5032.5 M-4842.6,5032.6c-5,0-8-2.1-10.1-5.2l5.3-3.9c1.3,1.5,2.5,2.4,4.4,2.4
			c2.7,0,4.5-2.2,4.5-5.2v-0.1c0-2.8-1.9-5-4.5-5c-1.9,0-3.2,0.9-4.2,2.4l-5.4-4c1.9-3.1,5-5.1,9.7-5.1c7.2,0,12.2,5.4,12.2,11.8
			v0.1C-4830.7,5027.2-4835.8,5032.6-4842.6,5032.6 M-4813.3,5018.8c-0.4-2.5-1.8-4.1-3.9-4.1c-2.2,0-3.7,1.6-3.9,4.1H-4813.3z
			 M-4817.9,5032.6c-4.5,0-7.7-1.8-9.9-4.6l4.4-3.7c1.6,1.6,3.2,2.3,5,2.3c2.5,0,4.3-1.3,4.9-3.7h-15.2c0-0.5,0-1.1,0-1.6
			c0-6.7,3.6-12.4,11.5-12.4c6.7,0,11.5,5.3,11.5,11.9v0.1C-4805.7,5027.9-4810.8,5032.6-4817.9,5032.6 M-4789.6,5038.9
			c-4.5,0-6.7-2.1-8.7-7.4l-8.3-22.2h8.2l4.3,13.7l4.5-13.7h8.4l-8.9,22.3c0.5,0.7,1,0.9,1.8,0.9c0.9,0,2.2-0.5,3.5-1.2l2.5,5.6
			C-4784.4,5038.1-4786.8,5038.9-4789.6,5038.9 M-4769.4,5025.8c2.8,0,4.8-2.4,4.8-5.1v-0.1c0-2.7-1.8-5-4.7-5
			c-2.8,0-4.8,2.4-4.8,5.1v0.1C-4774.1,5023.5-4772.3,5025.8-4769.4,5025.8 M-4769.3,5032.6c-7.3,0-12.6-5.4-12.6-11.9v-0.1
			c0-6.5,5.3-11.8,12.5-11.8c7.3,0,12.6,5.4,12.6,11.9v0.1C-4756.8,5027.3-4762,5032.6-4769.3,5032.6 M-4740.2,5032.1h-8v-7.1
			c0-5.3-2.4-7.6-6.5-7.6h-0.7v-8.4c3.8-0.2,5.9,1.8,7.2,5v-4.6h8V5032.1z M-4725,5025.9c2.6,0,4.6-2.1,4.6-5.2v-0.1
			c0-3-2.1-5.1-4.6-5.1c-2.6,0-4.7,2.1-4.7,5.1v0.1C-4729.7,5023.8-4727.6,5025.9-4725,5025.9 M-4712.6,5038.8h-8v-9.5
			c-1.5,1.7-3.5,3.3-6.9,3.3c-5.4,0-10-4.5-10-11.9v-0.1c0-7.3,4.7-11.8,10.1-11.8c3.4,0,5.3,1.6,6.9,3.5v-3h8V5038.8z"/>
		<g clip-path="url(#SVGID_4_)">
			<g>
				<defs>
					<rect id="SVGID_5_" x="-4805.9" y="4967.7" width="102.3" height="39.2"/>
				</defs>
				<clipPath id="SVGID_6_">
					<use xlink:href="#SVGID_5_"  overflow="visible"/>
				</clipPath>
				<path clip-path="url(#SVGID_6_)" d="M-4720.6,5005.4h8v-30.7h-8V5005.4z M-4731.9,5005.4h8v-22.7h-8V5005.4z M-4732.1,4980.6
					h8.3v-5.9h-8.3V4980.6z M-4771.6,5005.4h8V4993c0-2.5,1.3-3.8,3.2-3.8c1.9,0,3.1,1.3,3.1,3.8v12.4h8V4993c0-2.5,1.4-3.8,3.3-3.8
					c1.9,0,3.1,1.3,3.1,3.8v12.4h8v-14.9c0-5.3-2.9-8.3-7.8-8.3c-3.3,0-5.6,1.4-7.6,3.7c-1.2-2.4-3.5-3.7-6.6-3.7
					c-3.2,0-5.3,1.7-6.8,3.6v-3.1h-8V5005.4z M-4786.4,5000.9c-1.6,0-2.8-0.9-2.8-2.5v-0.1c0-1.7,1.3-2.8,3.7-2.8
					c1.2,0,2.3,0.3,3.1,0.6v1C-4782.4,4999.4-4784.1,5000.9-4786.4,5000.9 M-4789.2,5005.9c3,0,5.1-1.1,6.7-2.9v2.4h7.9v-13.1
					c0-3.2-0.7-5.5-2.4-7.2c-1.8-1.8-4.6-2.8-8.7-2.8c-3.9,0-6.6,0.7-9.2,1.8l1.6,5.6c2-0.8,3.9-1.3,6.3-1.3c3.1,0,4.5,1.3,4.5,3.7
					v0.4c-1.3-0.5-3.4-0.9-5.5-0.9c-5.3,0-8.9,2.4-8.9,7.1v0.1C-4796.9,5003.4-4793.5,5005.9-4789.2,5005.9"/>
			</g>
		</g>
	</g>
</g>
<g>
	<defs>
		<rect id="SVGID_7_" x="-4896.6" y="4974.7" width="184" height="64.2"/>
	</defs>
	<clipPath id="SVGID_8_">
		<use xlink:href="#SVGID_7_"  overflow="visible"/>
	</clipPath>
	<g clip-path="url(#SVGID_8_)">
		<defs>
			<rect id="SVGID_9_" x="-4896.6" y="4974.7" width="184" height="64.2"/>
		</defs>
		<clipPath id="SVGID_10_">
			<use xlink:href="#SVGID_9_"  overflow="visible"/>
		</clipPath>
		<path clip-path="url(#SVGID_10_)" fill="#FCDFEB" d="M-4720.6,5005.4h8v-30.7h-8V5005.4z M-4731.9,5005.4h8v-22.7h-8V5005.4z
			 M-4732.1,4980.6h8.3v-5.9h-8.3V4980.6z M-4771.6,5005.4h8V4993c0-2.5,1.3-3.8,3.2-3.8c1.9,0,3.1,1.3,3.1,3.8v12.4h8V4993
			c0-2.5,1.4-3.8,3.3-3.8c1.9,0,3.1,1.3,3.1,3.8v12.4h8v-14.9c0-5.3-2.9-8.3-7.8-8.3c-3.3,0-5.6,1.4-7.6,3.7
			c-1.2-2.4-3.5-3.7-6.6-3.7c-3.2,0-5.3,1.7-6.8,3.6v-3.1h-8V5005.4z M-4786.4,5000.9c-1.6,0-2.8-0.9-2.8-2.5v-0.1
			c0-1.7,1.3-2.8,3.7-2.8c1.2,0,2.3,0.3,3.1,0.6v1C-4782.4,4999.4-4784.1,5000.9-4786.4,5000.9 M-4789.2,5005.9c3,0,5.1-1.1,6.7-2.9
			v2.4h7.9v-13.1c0-3.2-0.7-5.5-2.4-7.2c-1.8-1.8-4.6-2.8-8.7-2.8c-3.9,0-6.6,0.7-9.2,1.8l1.6,5.6c2-0.8,3.9-1.3,6.3-1.3
			c3.1,0,4.5,1.3,4.5,3.7v0.4c-1.3-0.5-3.4-0.9-5.5-0.9c-5.3,0-8.9,2.4-8.9,7.1v0.1C-4796.9,5003.4-4793.5,5005.9-4789.2,5005.9"/>
		<path clip-path="url(#SVGID_10_)" fill="#A7A9AC" d="M-4884.1,5025.8c2.8,0,4.8-2.4,4.8-5.1v-0.1c0-2.7-1.8-5-4.7-5
			c-2.8,0-4.8,2.4-4.8,5.1v0.1C-4888.8,5023.5-4887,5025.8-4884.1,5025.8 M-4884,5032.6c-7.3,0-12.6-5.4-12.6-11.9v-0.1
			c0-6.5,5.3-11.8,12.5-11.8c7.3,0,12.6,5.4,12.6,11.9v0.1C-4871.5,5027.3-4876.7,5032.6-4884,5032.6 M-4864.6,5032.5
			c-2.2,0-4.1-0.5-5.5-1.3v-6.3c1,0.5,2,0.8,3,0.8c1.5,0,2.2-0.7,2.2-2.3v-7.7h-5.3v-6.4h5.3v-5.8h8v5.8h2.7v6.4h-2.7v9.2
			C-4856.9,5030.4-4859.8,5032.5-4864.6,5032.5 M-4842.6,5032.6c-5,0-8-2.1-10.1-5.2l5.3-3.9c1.3,1.5,2.5,2.4,4.4,2.4
			c2.7,0,4.5-2.2,4.5-5.2v-0.1c0-2.8-1.9-5-4.5-5c-1.9,0-3.2,0.9-4.2,2.4l-5.4-4c1.9-3.1,5-5.1,9.7-5.1c7.2,0,12.2,5.4,12.2,11.8
			v0.1C-4830.7,5027.2-4835.8,5032.6-4842.6,5032.6 M-4813.3,5018.8c-0.4-2.5-1.8-4.1-3.9-4.1c-2.2,0-3.7,1.6-3.9,4.1H-4813.3z
			 M-4817.9,5032.6c-4.5,0-7.7-1.8-9.9-4.6l4.4-3.7c1.6,1.6,3.2,2.3,5,2.3c2.5,0,4.3-1.3,4.9-3.7h-15.2c0-0.5,0-1.1,0-1.6
			c0-6.7,3.6-12.4,11.5-12.4c6.7,0,11.5,5.3,11.5,11.9v0.1C-4805.7,5027.9-4810.8,5032.6-4817.9,5032.6 M-4789.6,5038.9
			c-4.5,0-6.7-2.1-8.7-7.4l-8.3-22.2h8.2l4.3,13.7l4.5-13.7h8.4l-8.9,22.3c0.5,0.7,1,0.9,1.8,0.9c0.9,0,2.2-0.5,3.5-1.2l2.5,5.6
			C-4784.4,5038.1-4786.8,5038.9-4789.6,5038.9 M-4769.4,5025.8c2.8,0,4.8-2.4,4.8-5.1v-0.1c0-2.7-1.8-5-4.7-5
			c-2.8,0-4.8,2.4-4.8,5.1v0.1C-4774.1,5023.5-4772.3,5025.8-4769.4,5025.8 M-4769.3,5032.6c-7.3,0-12.6-5.4-12.6-11.9v-0.1
			c0-6.5,5.3-11.8,12.5-11.8c7.3,0,12.6,5.4,12.6,11.9v0.1C-4756.8,5027.3-4762,5032.6-4769.3,5032.6 M-4740.2,5032.1h-8v-7.1
			c0-5.3-2.4-7.6-6.5-7.6h-0.7v-8.4c3.8-0.2,5.9,1.8,7.2,5v-4.6h8V5032.1z M-4725,5025.9c2.6,0,4.6-2.1,4.6-5.2v-0.1
			c0-3-2.1-5.1-4.6-5.1c-2.6,0-4.7,2.1-4.7,5.1v0.1C-4729.7,5023.8-4727.6,5025.9-4725,5025.9 M-4712.6,5038.8h-8v-9.5
			c-1.5,1.7-3.5,3.3-6.9,3.3c-5.4,0-10-4.5-10-11.9v-0.1c0-7.3,4.7-11.8,10.1-11.8c3.4,0,5.3,1.6,6.9,3.5v-3h8V5038.8z"/>
		<g clip-path="url(#SVGID_10_)">
			<g>
				<defs>
					<rect id="SVGID_11_" x="-4805.9" y="4967.7" width="102.3" height="39.2"/>
				</defs>
				<clipPath id="SVGID_12_">
					<use xlink:href="#SVGID_11_"  overflow="visible"/>
				</clipPath>
				<path clip-path="url(#SVGID_12_)" d="M-4720.6,5005.4h8v-30.7h-8V5005.4z M-4731.9,5005.4h8v-22.7h-8V5005.4z M-4732.1,4980.6
					h8.3v-5.9h-8.3V4980.6z M-4771.6,5005.4h8V4993c0-2.5,1.3-3.8,3.2-3.8c1.9,0,3.1,1.3,3.1,3.8v12.4h8V4993c0-2.5,1.4-3.8,3.3-3.8
					c1.9,0,3.1,1.3,3.1,3.8v12.4h8v-14.9c0-5.3-2.9-8.3-7.8-8.3c-3.3,0-5.6,1.4-7.6,3.7c-1.2-2.4-3.5-3.7-6.6-3.7
					c-3.2,0-5.3,1.7-6.8,3.6v-3.1h-8V5005.4z M-4786.4,5000.9c-1.6,0-2.8-0.9-2.8-2.5v-0.1c0-1.7,1.3-2.8,3.7-2.8
					c1.2,0,2.3,0.3,3.1,0.6v1C-4782.4,4999.4-4784.1,5000.9-4786.4,5000.9 M-4789.2,5005.9c3,0,5.1-1.1,6.7-2.9v2.4h7.9v-13.1
					c0-3.2-0.7-5.5-2.4-7.2c-1.8-1.8-4.6-2.8-8.7-2.8c-3.9,0-6.6,0.7-9.2,1.8l1.6,5.6c2-0.8,3.9-1.3,6.3-1.3c3.1,0,4.5,1.3,4.5,3.7
					v0.4c-1.3-0.5-3.4-0.9-5.5-0.9c-5.3,0-8.9,2.4-8.9,7.1v0.1C-4796.9,5003.4-4793.5,5005.9-4789.2,5005.9"/>
			</g>
		</g>
	</g>
</g>
<g>
	<defs>
		<rect id="SVGID_13_" x="6.4" y="10.7" width="184" height="64.2"/>
	</defs>
	<clipPath id="SVGID_14_">
		<use xlink:href="#SVGID_13_"  overflow="visible"/>
	</clipPath>
	<g clip-path="url(#SVGID_14_)">
		<defs>
			<rect id="SVGID_15_" x="6.4" y="10.7" width="184" height="64.2"/>
		</defs>
		<clipPath id="SVGID_16_">
			<use xlink:href="#SVGID_15_"  overflow="visible"/>
		</clipPath>
		<path clip-path="url(#SVGID_16_)" fill="#FCDFEB" d="M182.4,41.4h8V10.7h-8V41.4z M171.1,41.4h8V18.6h-8V41.4z M170.9,16.6h8.3
			v-5.9h-8.3V16.6z M131.4,41.4h8V29c0-2.5,1.3-3.8,3.2-3.8c1.9,0,3.1,1.3,3.1,3.8v12.4h8V29c0-2.5,1.4-3.8,3.3-3.8
			c1.9,0,3.1,1.3,3.1,3.8v12.4h8V26.4c0-5.3-2.9-8.3-7.8-8.3c-3.3,0-5.6,1.4-7.6,3.7c-1.2-2.4-3.5-3.7-6.6-3.7
			c-3.2,0-5.3,1.7-6.8,3.6v-3.1h-8V41.4z M116.6,36.9c-1.6,0-2.8-0.9-2.8-2.5v-0.1c0-1.7,1.3-2.8,3.7-2.8c1.2,0,2.3,0.3,3.1,0.6v1
			C120.6,35.4,118.9,36.9,116.6,36.9 M113.8,41.9c3,0,5.1-1.1,6.7-2.9v2.4h7.9V28.3c0-3.2-0.7-5.5-2.4-7.2c-1.8-1.8-4.6-2.8-8.7-2.8
			c-3.9,0-6.6,0.7-9.2,1.8l1.6,5.6c2-0.8,3.9-1.3,6.3-1.3c3.1,0,4.5,1.3,4.5,3.7v0.4c-1.3-0.5-3.4-0.9-5.5-0.9
			c-5.3,0-8.9,2.4-8.9,7.1v0.1C106.1,39.4,109.5,41.9,113.8,41.9"/>
		<path clip-path="url(#SVGID_16_)" fill="#A7A9AC" d="M18.9,61.8c2.8,0,4.8-2.4,4.8-5.1v-0.1c0-2.7-1.8-5-4.7-5
			c-2.8,0-4.8,2.4-4.8,5.1v0.1C14.2,59.5,16,61.8,18.9,61.8 M19,68.6c-7.3,0-12.6-5.4-12.6-11.9v-0.1c0-6.5,5.3-11.8,12.5-11.8
			c7.3,0,12.6,5.4,12.6,11.9v0.1C31.5,63.3,26.3,68.6,19,68.6 M38.4,68.5c-2.2,0-4.1-0.5-5.5-1.3V61c1,0.5,2,0.8,3,0.8
			c1.5,0,2.2-0.7,2.2-2.3v-7.7h-5.3v-6.4h5.3v-5.8h8v5.8h2.7v6.4h-2.7V61C46.1,66.4,43.2,68.5,38.4,68.5 M60.4,68.6
			c-5,0-8-2.1-10.1-5.2l5.3-3.9c1.3,1.5,2.5,2.4,4.4,2.4c2.7,0,4.5-2.2,4.5-5.2v-0.1c0-2.8-1.9-5-4.5-5c-1.9,0-3.2,0.9-4.2,2.4
			l-5.4-4c1.9-3.1,5-5.1,9.7-5.1c7.2,0,12.2,5.4,12.2,11.8v0.1C72.3,63.2,67.2,68.6,60.4,68.6 M89.7,54.8c-0.4-2.5-1.8-4.1-3.9-4.1
			c-2.2,0-3.7,1.6-3.9,4.1H89.7z M85.1,68.6c-4.5,0-7.7-1.8-9.9-4.6l4.4-3.7c1.6,1.6,3.2,2.3,5,2.3c2.5,0,4.3-1.3,4.9-3.7H74.4
			c0-0.5,0-1.1,0-1.6c0-6.7,3.6-12.4,11.5-12.4c6.7,0,11.5,5.3,11.5,11.9v0.1C97.3,63.9,92.2,68.6,85.1,68.6 M113.4,74.9
			c-4.5,0-6.7-2.1-8.7-7.4l-8.3-22.2h8.2l4.3,13.7l4.5-13.7h8.4l-8.9,22.3c0.5,0.7,1.1,0.9,1.8,0.9c0.9,0,2.2-0.5,3.5-1.2l2.5,5.6
			C118.6,74.1,116.2,74.9,113.4,74.9 M133.6,61.8c2.8,0,4.8-2.4,4.8-5.1v-0.1c0-2.7-1.8-5-4.7-5c-2.8,0-4.8,2.4-4.8,5.1v0.1
			C128.9,59.5,130.7,61.8,133.6,61.8 M133.7,68.6c-7.3,0-12.6-5.4-12.6-11.9v-0.1c0-6.5,5.3-11.8,12.5-11.8
			c7.3,0,12.6,5.4,12.6,11.9v0.1C146.2,63.3,141,68.6,133.7,68.6 M162.8,68.1h-8V61c0-5.3-2.4-7.6-6.5-7.6h-0.7V45
			c3.8-0.2,5.9,1.8,7.2,5v-4.6h8V68.1z M178,61.9c2.6,0,4.6-2.1,4.6-5.2v-0.1c0-3-2.1-5.1-4.6-5.1c-2.6,0-4.7,2.1-4.7,5.1v0.1
			C173.3,59.8,175.4,61.9,178,61.9 M190.4,74.8h-8v-9.5c-1.5,1.7-3.5,3.3-6.9,3.3c-5.4,0-10-4.5-10-11.9v-0.1
			c0-7.3,4.7-11.8,10.1-11.8c3.4,0,5.3,1.6,6.9,3.5v-3h8V74.8z"/>
		<g clip-path="url(#SVGID_16_)">
			<g>
				<defs>
					<rect id="SVGID_17_" x="97.1" y="3.7" width="102.3" height="39.2"/>
				</defs>
				<clipPath id="SVGID_18_">
					<use xlink:href="#SVGID_17_"  overflow="visible"/>
				</clipPath>
				<path clip-path="url(#SVGID_18_)" d="M182.4,41.4h8V10.7h-8V41.4z M171.1,41.4h8V18.6h-8V41.4z M170.9,16.6h8.3v-5.9h-8.3V16.6z
					 M131.4,41.4h8V29c0-2.5,1.3-3.8,3.2-3.8c1.9,0,3.1,1.3,3.1,3.8v12.4h8V29c0-2.5,1.4-3.8,3.3-3.8c1.9,0,3.1,1.3,3.1,3.8v12.4h8
					V26.4c0-5.3-2.9-8.3-7.8-8.3c-3.3,0-5.6,1.4-7.6,3.7c-1.2-2.4-3.5-3.7-6.6-3.7c-3.2,0-5.3,1.7-6.8,3.6v-3.1h-8V41.4z
					 M116.6,36.9c-1.6,0-2.8-0.9-2.8-2.5v-0.1c0-1.7,1.3-2.8,3.7-2.8c1.2,0,2.3,0.3,3.1,0.6v1C120.6,35.4,118.9,36.9,116.6,36.9
					 M113.8,41.9c3,0,5.1-1.1,6.7-2.9v2.4h7.9V28.3c0-3.2-0.7-5.5-2.4-7.2c-1.8-1.8-4.6-2.8-8.7-2.8c-3.9,0-6.6,0.7-9.2,1.8l1.6,5.6
					c2-0.8,3.9-1.3,6.3-1.3c3.1,0,4.5,1.3,4.5,3.7v0.4c-1.3-0.5-3.4-0.9-5.5-0.9c-5.3,0-8.9,2.4-8.9,7.1v0.1
					C106.1,39.4,109.5,41.9,113.8,41.9"/>
			</g>
		</g>
	</g>
</g>
</svg>
